PathFileType	4	(X/Y/Z)	C:\Users\86182\Documents\cortex\Trimmed_M1_H6.trc
DataRate	CameraRate	NumFrames	NumMarkers	Units	OrigDataRate	OrigDataStartFrame	OrigNumFrames
100.00	100.00	       84	2	mm	100.00	761	       951
Frame#	Time	gripper			box			
		X1	Y1	Z1	X2	Y2	Z2	

761	7.600	220.91177	203.65440	287.02255	227.21666	202.46451	135.85237	
762	7.610	220.89825	203.64775	287.01340	227.21666	202.46451	135.85237	
763	7.620	220.90732	203.65221	287.01947	227.21666	202.46451	135.85237	
764	7.630	220.90504	203.65109	287.01797	227.21666	202.46451	135.85237	
765	7.640	220.90952	203.65329	287.02106	227.21666	202.46451	135.85237	
766	7.650	220.91177	203.65440	287.02255	227.21666	202.46451	135.85237	
767	7.660	220.91177	203.65440	287.02255	227.21666	202.46451	135.85237	
768	7.670	220.91177	203.65440	287.02255	227.21666	202.46451	135.85237	
769	7.680	220.90952	203.65329	287.02106	227.21666	202.46451	135.85237	
770	7.690	220.91177	203.65440	287.02255	227.21666	202.46451	135.85237	
771	7.700	220.88925	203.64333	287.00732	227.21666	202.46451	135.85237	
772	7.710	220.90732	203.65221	287.01947	227.21666	202.46451	135.85237	
773	7.720	220.91177	203.65440	287.02255	227.21666	202.46451	135.85237	
774	7.730	220.88260	203.64005	287.00278	227.21666	202.46451	135.85237	
775	7.740	220.91177	203.65440	287.02255	227.21666	202.46451	135.85237	
776	7.750	220.89372	203.64552	287.01038	227.21666	202.46451	135.85237	
777	7.760	220.91177	203.65440	287.02255	227.21666	202.46451	135.85237	
778	7.770	220.91177	203.65440	287.02255	227.21666	202.46451	135.85237	
779	7.780	220.88925	203.64333	287.00732	227.21666	202.46451	135.85237	
780	7.790	220.91177	203.65440	287.02255	227.21666	202.46451	135.85237	
781	7.800	220.90952	203.65329	287.02106	227.21666	202.46451	135.85237	
782	7.810	220.89598	203.64664	287.01187	227.21666	202.46451	135.85237	
783	7.820	220.89372	203.64552	287.01038	227.21666	202.46451	135.85237	
784	7.830	220.89825	203.64775	287.01340	227.21666	202.46451	135.85237	
785	7.840	220.89598	203.64664	287.01187	227.21666	202.46451	135.85237	
786	7.850	220.89153	203.64444	287.00885	227.21666	202.46451	135.85237	
787	7.860	220.91177	203.65440	287.02255	227.17355	202.44482	135.86609	
788	7.870	220.90504	203.65109	287.01797	227.20232	202.45796	135.85693	
789	7.880	220.91177	203.65440	287.02255	227.21666	202.46451	135.85237	
790	7.890	220.91177	203.65440	287.02255	227.21666	202.46451	135.85237	
791	7.900	220.91177	203.65440	287.02255	227.21666	202.46451	135.85237	
792	7.910	220.91177	203.65440	287.02255	227.21666	202.46451	135.85237	
793	7.920	220.90045	203.64883	287.01495	227.21002	202.46123	135.85648	
794	7.930	220.88033	203.63893	287.00125	227.21666	202.46451	135.85237	
795	7.940	220.91177	203.65440	287.02255	227.21666	202.46451	135.85237	
796	7.950	220.89153	203.64444	287.00885	227.21666	202.46451	135.85237	
797	7.960	220.91177	203.65440	287.02255	227.21666	202.46451	135.85237	
798	7.970	220.91177	203.65440	287.02255	227.21666	202.46451	135.85237	
799	7.980	220.89372	203.64552	287.01038	227.18797	202.45142	135.86150	
800	7.990	220.89825	203.64775	287.01340	227.21666	202.46451	135.85237	
801	8.000	220.87146	203.63457	286.99521	227.21666	202.46451	135.85237	
802	8.010	220.91177	203.65440	287.02255	227.21666	202.46451	135.85237	
803	8.020	220.89372	203.64552	287.01038	227.21666	202.46451	135.85237	
804	8.030	220.91177	203.65440	287.02255	227.21666	202.46451	135.85237	
805	8.040	220.91177	203.65440	287.02255	227.21666	202.46451	135.85237	
806	8.050	220.90045	203.64883	287.01495	227.21666	202.46451	135.85237	
807	8.060	220.90279	203.64998	287.01645	227.21666	202.46451	135.85237	
808	8.070	220.91177	203.65440	287.02255	227.21666	202.46451	135.85237	
809	8.080	220.90045	203.64883	287.01495	227.21666	202.46451	135.85237	
810	8.090	220.91177	203.65440	287.02255	227.21666	202.46451	135.85237	
811	8.100	220.88480	203.64113	287.00430	227.21666	202.46451	135.85237	
812	8.110	220.91177	203.65440	287.02255	227.21666	202.46451	135.85237	
813	8.120	220.91177	203.65440	287.02255	227.21666	202.46451	135.85237	
814	8.130	220.89372	203.64552	287.01038	227.21666	202.46451	135.85237	
815	8.140	220.91177	203.65440	287.02255	227.21666	202.46451	135.85237	
816	8.150	220.91177	203.65440	287.02255	227.21666	202.46451	135.85237	
817	8.160	220.89598	203.64664	287.01187	227.21666	202.46451	135.85237	
818	8.170	220.90732	203.65221	287.01947	227.21666	202.46451	135.85237	
819	8.180	220.89153	203.64444	287.00885	227.20232	202.45796	135.85693	
820	8.190	220.88260	203.64005	287.00278	227.21666	202.46451	135.85237	
821	8.200	220.91177	203.65440	287.02255	227.21666	202.46451	135.85237	
822	8.210	220.87585	203.63673	286.99826	227.21666	202.46451	135.85237	
823	8.220	220.91177	203.65440	287.02255	227.21666	202.46451	135.85237	
824	8.230	220.90504	203.65109	287.01797	227.21666	202.46451	135.85237	
825	8.240	220.88480	203.64113	287.00430	227.21666	202.46451	135.85237	
826	8.250	220.91177	203.65440	287.02255	227.21666	202.46451	135.85237	
827	8.260	220.89153	203.64444	287.00885	227.21666	202.46451	135.85237	
828	8.270	220.89825	203.64775	287.01340	227.21666	202.46451	135.85237	
829	8.280	220.90045	203.64883	287.01495	227.21666	202.46451	135.85237	
830	8.290	220.90045	203.64883	287.01495	227.20232	202.45796	135.85693	
831	8.300	220.91177	203.65440	287.02255	227.21666	202.46451	135.85237	
832	8.310	220.90952	203.65329	287.02106	227.21666	202.46451	135.85237	
833	8.320	220.91177	203.65440	287.02255	227.21666	202.46451	135.85237	
834	8.330	220.91177	203.65440	287.02255	227.21666	202.46451	135.85237	
835	8.340	220.87146	203.63457	286.99521	227.21666	202.46451	135.85237	
836	8.350	220.91177	203.65440	287.02255	227.21666	202.46451	135.85237	
837	8.360	220.91177	203.65440	287.02255	227.21666	202.46451	135.85237	
838	8.370	220.89825	203.64775	287.01340	227.21666	202.46451	135.85237	
839	8.380	220.91177	203.65440	287.02255	227.21666	202.46451	135.85237	
840	8.390	220.91177	203.65440	287.02255	227.21666	202.46451	135.85237	
841	8.400	220.90504	203.65109	287.01797	227.21666	202.46451	135.85237	
842	8.410	220.88480	203.64113	287.00430	227.21666	202.46451	135.85237	
843	8.420	220.90504	203.65109	287.01797	227.21666	202.46451	135.85237	
844	8.430	220.90952	203.65329	287.02106	227.21666	202.46451	135.85237	
